<svg xmlns="http://www.w3.org/2000/svg" viewBox="0 0 1024 1024" xml:space="preserve"><path d="M568.682 849.885c-23.586 7.804-47.401 12.347-71.856 12.346-43.558 0-84.013-11.933-122.031-32.832-28.96-15.92-54.335-36.12-74.69-62.29-12.005-15.437-20.023-32.982-25.844-51.536-1.182-3.765-2.854-5.21-6.912-5.422-19.366-1.007-37.979-4.928-54.123-16.496-25.042-17.945-40.182-42.32-45.477-72.542-3.31-18.894-1.848-37.435 7.298-54.845 2.565-4.884 6.11-9.082 9.198-13.603-12.086-16.367-13.814-35.278-13.83-54.377-2.142-.279-2.845.767-3.393 1.737-5.28 9.352-9.616 19.038-9.667 30.055-.016 3.311-.052 6.52-3.783 7.856-3.487 1.25-5.54-1.14-7.672-3.335-13.152-13.538-19.433-29.894-20.287-48.592-1.232-26.962 5.436-52 18.044-75.643a25 25 0 0 0 1.244-2.711c.094-.242-.121-.603-.348-1.55-4.789 2.031-8.32 5.354-11.444 9.16-7.255 8.836-12.498 18.834-16.943 29.314-1.296 3.055-1.594 7.9-5.861 7.72-3.78-.158-4.152-4.762-5.31-7.744-7.588-19.536-6.123-39.181.209-58.602 8.734-26.791 25.283-47.336 50.258-60.813.862-.465 1.882-.776 2.117-2.17-.684-2.362-3.167-1.945-4.85-2.43-30.59-8.827-47.053-38.996-40.934-70.092 1.01-5.133 5.557-6.127 9.741-1.688 6.06 6.43 13.652 10.028 21.694 12.859 14.133 4.974 28.592 4.134 42.812.877 16.218-3.716 32.355-8.026 46.396-17.615 2.697-1.842 5.615-3.542 7.202-6.853-1.789-2.456-4.543-2.831-6.964-3.668-13.432-4.643-24.665-12.32-33.237-23.75-12.104-16.135-13.646-33.775-7.426-52.49.74-2.227 1.745-4.447 4.604-4.655 2.315-.168 4.003.639 5.474 2.659 8.612 11.823 20.62 18.492 34.79 20.383 23.757 3.17 45.508-3.36 65.325-16.269 16.89-11.002 33.365-22.629 51.81-31.032 22.298-10.157 45.65-16.143 70.011-18.639 43.864-4.494 84.288 4.99 121.237 29.118.69.451 1.421.841 2.778.874-.975-1.52-1.877-3.092-2.944-4.544-1.183-1.608-2.407-3.213-3.799-4.637-14.262-14.592-29.27-28.236-48.04-36.958-2.84-1.32-4.227-3.177-3.245-6.31 1.105-3.525 2.048-7.253 6.819-7.424 7.194-.26 14.26 1.042 21.307 2.093 23.956 3.575 47.17 9.444 68.821 20.952 34.863 18.532 59.177 45.364 68.701 84.38.765 3.132 1.452 6.282 2.396 10.384 11.721-26.391 7.956-50.148-7.478-72.608-1.825-2.656-4.465-4.923-1.696-8.27 2.602-3.145 6-2.561 9.15-1.143 7.188 3.236 13.906 7.407 19.482 12.934 13.987 13.865 20.86 30.999 21.798 50.54.424 8.82.314 17.685-2.287 26.22-1.45 4.754.994 4.876 4.273 4.222 8-1.596 16.006-2.817 24.212-2.796 25.995.067 48.719 8.467 67.276 26.825 22.268 22.028 37.469 48.23 44.985 78.758.65 2.637.881 5.296.201 7.903-.408 1.564-1.007 3.366-2.835 3.843-1.942.507-3.016-1.052-4.072-2.32-5.014-6.013-10.101-11.97-14.972-18.098-12.645-15.906-26.188-30.717-45.582-38.648-1.08-.442-2.128-.987-3.241-1.307-1.253-.36-2.564-.517-5.327-1.045 4.266 3.518 7.43 6.233 10.703 8.811 30.753 24.236 51.957 55.42 66.733 91.344 6.839 16.63 13.536 33.354 24.766 47.723 5.31 6.794 12.058 11.438 20.363 13.7 4.42 1.204 8.929 1.46 13.15-.755 2.28-1.196 4.502-1.701 6.459.132 2.09 1.957 1.845 4.595.895 7.002-3.486 8.827-9.005 16.296-15.854 22.776-9.786 9.26-21.365 13.839-34.95 13.187-2.598-.125-5.317-.581-8.16.739.326 5.337 2.47 10.243 3.955 15.275 5.188 17.571 8.04 35.3 4.34 53.576-1.468 7.254-4.565 13.876-7.812 20.46-1.33 2.697-3.04 4.321-6.207 3.8-3.37-.556-4.079-3.388-4.427-5.936-.866-6.323-2.386-12.401-5.294-18.092-.97-1.897-1.805-3.93-3.776-5.132-1.935.609-2.2 2.41-2.882 3.843-1.644 3.46-2.92 7.126-4.853 10.409-4.728 8.027-5.104 14.823-.73 24.22 11.442 24.578 9.155 50.03-1.818 74.423-15.115 33.6-39.84 56.147-76.699 63.808-4.053.843-8.227 1.089-12.337 1.665-2.598.364-5.024.3-6.875-2.946-3.118 7.95-5.847 15.21-8.796 22.38-12.98 31.567-34.455 56.392-61.542 76.572-24.862 18.522-51.727 33.412-81.615 43.396M271.067 623.783c5.958 27.745 9.472 56.068 18.078 83.178 11.337 35.709 33.207 64.123 62.666 86.994 26.165 20.313 55.714 33.686 87.163 43.287 30.57 9.332 61.548 12.309 92.947 4.972 42.609-9.955 81.509-27.808 115.282-55.965 26.708-22.267 46.917-49.25 56.001-83.216 12.06-45.085 21.44-90.76 27.185-137.128.441-3.557-1.785-4.048-4.275-3.74-2.533.312-6.956-1.765-6.574 3.431.752 10.214-.951 20.182-2.088 30.244-6.123 54.165-58.688 90.915-109.89 82.575-53.08-8.646-83.053-53.853-80.475-105.685.307-6.169-1.379-9.534-6.392-11.847-17.639-8.14-34.961-8.013-52.052 1.833-3.185 1.836-4.554 3.846-4.343 7.49.706 12.224-1.184 24.192-4.026 36.033-12.3 51.23-61.525 81.565-112.937 70.202-39.015-8.622-71.918-40.336-75.763-89.936-.554-7.149-.94-14.274-.946-21.431-.003-2.96-1.826-3.765-4.304-3.387-1.96.3-3.87.607-3.416 3.69 2.829 19.176 2.682 38.759 8.159 58.406m429.412-138.764c-.961 1.545-2.094 3.01-2.853 4.65-2.82 6.088-3.525 6.38-9.105 2.613-27.029-18.242-56.915-21.642-88.404-17.413-8.063 1.082-15.922 3.494-24.135 3.541-2.86.017-5.336-.56-6.643-3.4-1.207-2.622-3.136-2.974-5.767-2.406-4.696 1.014-6.302-.565-5.87-5.442.306-3.461 2.246-6.232 3.988-9.055 9.49-15.376 16.856-31.748 22.88-48.746.684-1.928 1.817-3.89.537-6.554-3.518 2.79-5.736 6.286-8.002 9.606-20.825 30.52-48.904 52.474-81.554 68.911-18.859 9.495-38.411 16.822-60.08 16.08-4.132-.142-8.046-.229-9.711-5.104-1.79-5.241-.089-8.807 4.42-11.83 24.586-16.484 37.729-40.613 45.036-68.463.63-2.396 2.38-5.204.415-7.89-1.564.21-2.267 1.222-2.945 2.126-13.813 18.431-30.46 33.891-49.085 47.357-6.59 4.765-6.467 5.187-2.263 12.085 1.31 2.15 2.724 4.276 2.615 6.887-.25 5.976-4.709 9.376-10.813 7.034-17.849-6.848-35.146-4.93-52.406 1.858-2.78 1.094-5.675 1.937-8.573 2.681-16.7 4.287-33.584 6.775-50.82 4.146-7.09-1.08-14.152-2.785-19.836-7.514-6.428-5.347-4.987-12.726 2.76-15.403 1.255-.434 2.477-.982 3.678-1.554 17.265-8.207 30.011-21.311 40.067-37.246 2.498-3.957 5.313-7.846 6.54-12.886-3.043-.257-4.418 1.586-6.013 2.861-15.73 12.58-32.99 21.874-53.213 24.76-2.994.426-4.85 1.587-5.385 4.798-2.726 16.365-6.474 32.586-6.616 49.3-.105 12.33-.274 24.658-.433 36.987-.015 1.173-.186 2.32 1.031 3.098 2.981 1.907 11.75-.357 13.577-3.56 4.61-8.09 10.715-14.799 18.352-20.143 19.222-13.451 41.33-18.487 64.023-19.851 22.909-1.377 44.933 4.125 65.621 14.296 15.644 7.69 27.711 18.86 34.225 35.431 2.348 5.976 2.619 5.867 8.863 3.539 12.159-4.533 24.554-6.688 37.658-4.774 8.323 1.216 16.074 3.92 23.706 6.97 2.225-1.891 2.806-4.407 3.823-6.638 3.207-7.034 7.162-13.527 12.83-18.894 19.634-18.596 43.522-27.179 69.986-29.114 16.567-1.21 32.81 1.935 48.854 5.731 20.885 4.941 38.514 14.52 48.837 34.623 2.608 5.077 8.22 2.274 12.35 2.538 2.457.158 2.744-3.634 3.011-6.073 2.016-18.44.853-36.942.888-55.416.01-5.11-1.05-10.226-1.703-15.328-.22-1.723.157-4.022-2.303-4.432-2.279-.38-3.04 1.754-4.026 3.2-6.493 9.515-13.564 18.56-22.014 27.422M412.075 648.586c15.554-10.709 25.94-25.139 31.016-43.328 2.054-7.363 2.948-14.94 4.071-22.496 3.884-26.128-6.543-48.765-30.22-60.211-32.486-15.706-65.964-16.744-99.402-2.568-16.586 7.032-26.314 19.84-29.122 37.736-2.117 13.494-.593 26.81 2 40.076 10.98 56.192 76.603 81.97 121.657 50.791m271.923-16.081c4.674-6.3 8.912-12.812 11.67-20.256 5.694-15.362 7.84-31.259 6.87-47.497-.647-10.833-2.55-21.473-9.726-30.37-6.853-8.496-16-13.517-26.02-16.92-25.701-8.728-51.736-8.465-77.483-.709-27.352 8.24-45.418 28.975-45.306 58.047.076 19.837 3.189 38.916 15.231 55.274 18.586 25.247 43.707 36 74.843 31.616 20.232-2.849 36.132-13.648 49.921-29.185M631.055 445.01c1.144.201 2.281.508 3.434.588 19.72 1.362 37.253 7.937 51.867 21.589 1.143 1.068 2.15 2.61 4.344 2.439 1.142-4.43 2.254-8.905 3.45-13.357 2.562-9.528 4.026-19.233 3.373-29.071-.483-7.265-2.026-14.452-2.76-21.708-2.22-21.947-8.603-42.595-19.044-61.99-5.925-11.007-13.063-21.106-23.16-30.222-.24 5.585-.487 10.187-1.1 14.763-3.156 23.515-9.52 46.116-18.644 67.985-6.214 14.893-15.986 27.59-24.918 40.812-1.44 2.132-3.322 4.138-3.192 8.013 8.613 0 17.02 0 26.35.16M216.13 581.197c3.132-1.297 6.402-1.64 9.771-1.631 2.161.006 4-.7 3.811-3.476-.461-6.746-11.677-18.496-20.703-14.54-10.855 4.76-18.64 11.792-22.394 23.277-4.913 15.03-4.072 30.017.882 44.591 10.842 31.894 31.135 54.277 65.26 61.68 4.582.993 9.368 1.04 14.78 1.6-6.543-23.953-10.974-47.432-16.203-70.78-.908 6.922-3.43 13.659-.824 20.66 1.334 3.586-.808 4.946-4.08 4.887-4.048-.072-6.362-2.722-7.858-6.035-4.491-9.953-3.216-19.407 2.883-28.312 1-1.46 2.603-2.51 1.386-4.773-3.923-7.296-9.507-12.887-17.866-13.74-7.013-.717-12.36 3.163-15.605 9.57-.943 1.861-2.467 2.637-4.538 2.233-2.187-.427-2.993-2.041-3.062-3.994-.059-1.641.017-3.351.418-4.933 1.873-7.385 6.254-12.756 13.942-16.284m576.191-14.034a34.9 34.9 0 0 0-12.21-5.503c-3.077-.73-5.883.491-6.21 3.426-.637 5.708-1.817 11.314-3.17 17.142 9.544 2.49 16.002 7.52 18.05 17.158.627 2.95.443 5.407-2.367 6.86-2.785 1.44-4.732-.256-6.371-2.34-2.421-3.08-5.425-5.362-9.063-6.834-3.598-1.455-5.942-1.125-7.78 3.08-5.224 11.96-11.653 23.287-21.622 32.026-2.995 2.625-4.546 5.57-5.13 9.273-2.148 13.626-5.26 27.032-8.805 40.359-.992 3.728-2.679 7.414-2.5 12.114 5.287-1.014 10.2-1.673 14.96-2.914 41.391-10.79 70.665-51.615 67.402-94.532-.863-11.354-4.724-21.805-15.184-29.315"/><path d="M590.64 723.968c-15.122 16.625-34.277 25.765-54.972 31.657-36.678 10.444-72.362 6.875-106.747-9.54-6.787-3.24-12.954-7.514-18.587-12.505-4.378-3.877-4.941-8.973-1.538-12.63 3.508-3.77 7.331-3.268 12.062.757 13.752 11.702 29.725 18.972 47.488 21.74 22.572 3.518 45.086 2.731 67.078-3.883 15.336-4.612 29.188-12.175 40.578-23.637 3.258-3.279 6.256-5.354 10.869-2.88 4.49 2.409 5.221 6.093 3.77 10.92m-111.348-72.762c-7.104 13.769-1.64 24.315 13.421 26.351 2.661.36 5.101.694 5.501 3.847.391 3.085-1.97 4.349-4.244 5.46-12.255 5.982-31.375-6.295-32.308-20.69-.495-7.631 1.047-14.55 6.766-20.053.948-.912 1.994-1.8 3.15-2.402 2.447-1.277 5.252-1.982 7.5-.1 2.39 2.004 1.883 4.74.214 7.587M364.081 610.5c-3.697-13.204-3.435-25.953.701-38.613 3.618-11.071 10.638-17.174 19.424-17.274 5.546-.063 9.522 2.693 12.825 6.613 5.754 6.83 8.29 14.945 9.366 23.725 1.13 9.216.635 18.263-2.323 27.018-4.122 12.197-13.549 18.004-24.344 15.194-8.443-2.198-12.583-8.716-15.649-16.663"/><path d="M403.395 553.589c-9.358-7.815-19.917-10.396-31.498-9.215-10.028 1.023-16.98 7.201-22.969 14.549-3.138 3.85-5.56 8.278-8.405 12.376-1.489 2.145-3.026 5.095-6.227 3.507-2.953-1.465-2.867-4.675-2.378-7.533 2.462-14.403 11.14-24.498 23.481-31.148 18.096-9.75 35.982-7.649 52.752 3.613 6.885 4.624 11.265 11.25 11.3 20.034.009 2.115-.361 4.068-2.597 4.92s-3.881-.431-5.259-1.921c-2.705-2.927-5.294-5.961-8.2-9.182m229.984 43.656c-.258 7.546-2.058 14.256-5.475 20.457-7.442 13.503-25.508 14.154-32.801.579-9.585-17.84-8.994-36.447.882-53.918 7.631-13.5 23.395-13.062 31.55.159 6.117 9.916 6.788 20.994 5.844 32.723"/><path d="M576.02 550.304c7.702-12.252 19.735-16.6 32.629-18.385 14.521-2.01 28.114 1.293 39.79 10.706 6.653 5.363 11.461 11.982 13.388 20.456.22.966.435 1.962.438 2.944.009 3.186.139 6.914-3.327 8.171-3.906 1.417-4.998-2.533-6.287-4.988-5.244-9.989-11.871-18.423-22.922-22.48-15.826-5.81-33.887-.978-44.654 12.008-1.687 2.035-3.093 4.359-5.52 5.686-3.467 1.895-6.01.66-6.197-3.253-.177-3.696.636-7.26 2.661-10.865"/></svg>